<?xml version="1.0" encoding="UTF-8"?>
<svg xmlns="http://www.w3.org/2000/svg" version="1.1" width="100" height="100" viewBox="0 0 100 100"><rect x="0" y="0" width="100" height="100" fill="#ff3700"/><g transform="scale(3.448)"><g transform="translate(0,0)"><path fill-rule="evenodd" d="M8 0L8 1L9 1L9 2L8 2L8 5L9 5L9 4L11 4L11 5L10 5L10 10L9 10L9 8L8 8L8 12L6 12L6 11L7 11L7 10L6 10L6 9L7 9L7 8L6 8L6 9L4 9L4 8L0 8L0 10L1 10L1 9L3 9L3 10L4 10L4 12L3 12L3 13L4 13L4 12L5 12L5 14L3 14L3 15L2 15L2 12L1 12L1 11L0 11L0 12L1 12L1 13L0 13L0 14L1 14L1 15L0 15L0 17L1 17L1 18L0 18L0 19L1 19L1 18L2 18L2 20L1 20L1 21L2 21L2 20L3 20L3 19L4 19L4 18L6 18L6 19L5 19L5 20L4 20L4 21L5 21L5 20L6 20L6 21L8 21L8 22L10 22L10 23L9 23L9 25L8 25L8 29L9 29L9 27L10 27L10 28L11 28L11 29L12 29L12 28L14 28L14 27L15 27L15 26L16 26L16 27L17 27L17 26L18 26L18 27L19 27L19 26L20 26L20 28L18 28L18 29L22 29L22 28L23 28L23 29L24 29L24 28L26 28L26 26L27 26L27 24L25 24L25 23L26 23L26 22L27 22L27 23L28 23L28 24L29 24L29 23L28 23L28 22L29 22L29 21L27 21L27 18L28 18L28 15L29 15L29 13L27 13L27 12L26 12L26 11L28 11L28 12L29 12L29 11L28 11L28 10L29 10L29 8L28 8L28 10L26 10L26 11L24 11L24 12L25 12L25 13L27 13L27 14L24 14L24 17L23 17L23 18L22 18L22 20L20 20L20 19L18 19L18 17L17 17L17 18L16 18L16 17L15 17L15 16L17 16L17 15L14 15L14 14L17 14L17 13L18 13L18 12L17 12L17 13L15 13L15 12L16 12L16 11L15 11L15 12L14 12L14 14L13 14L13 12L12 12L12 13L11 13L11 11L14 11L14 10L15 10L15 9L19 9L19 10L21 10L21 11L19 11L19 12L23 12L23 10L25 10L25 9L27 9L27 8L24 8L24 9L22 9L22 8L21 8L21 5L20 5L20 4L21 4L21 1L20 1L20 0L17 0L17 1L16 1L16 0L15 0L15 1L16 1L16 2L15 2L15 3L14 3L14 5L13 5L13 3L12 3L12 4L11 4L11 2L14 2L14 0L12 0L12 1L11 1L11 0L10 0L10 1L9 1L9 0ZM17 1L17 2L16 2L16 3L18 3L18 5L17 5L17 4L16 4L16 5L14 5L14 6L13 6L13 5L12 5L12 6L11 6L11 8L12 8L12 6L13 6L13 8L14 8L14 9L15 9L15 7L16 7L16 6L17 6L17 7L18 7L18 6L19 6L19 7L20 7L20 6L19 6L19 4L20 4L20 3L18 3L18 1ZM19 1L19 2L20 2L20 1ZM8 6L8 7L9 7L9 6ZM14 6L14 7L15 7L15 6ZM11 9L11 10L12 10L12 9ZM5 10L5 11L6 11L6 10ZM17 10L17 11L18 11L18 10ZM6 13L6 14L8 14L8 13ZM9 13L9 14L10 14L10 16L11 16L11 17L10 17L10 18L11 18L11 19L9 19L9 16L7 16L7 15L6 15L6 16L7 16L7 17L6 17L6 18L7 18L7 19L6 19L6 20L9 20L9 21L10 21L10 20L11 20L11 23L14 23L14 22L15 22L15 23L17 23L17 24L16 24L16 25L17 25L17 24L18 24L18 26L19 26L19 25L20 25L20 26L21 26L21 27L23 27L23 26L24 26L24 27L25 27L25 26L26 26L26 25L25 25L25 26L24 26L24 25L22 25L22 26L21 26L21 25L20 25L20 24L19 24L19 23L18 23L18 22L20 22L20 20L19 20L19 21L17 21L17 22L16 22L16 21L13 21L13 18L14 18L14 15L13 15L13 14L12 14L12 16L11 16L11 13ZM19 13L19 15L20 15L20 16L21 16L21 17L20 17L20 18L21 18L21 17L22 17L22 16L23 16L23 15L22 15L22 14L23 14L23 13L22 13L22 14L21 14L21 15L20 15L20 13ZM3 15L3 16L5 16L5 15ZM21 15L21 16L22 16L22 15ZM25 15L25 17L24 17L24 18L23 18L23 20L26 20L26 19L24 19L24 18L26 18L26 17L27 17L27 15ZM12 16L12 17L13 17L13 16ZM11 19L11 20L12 20L12 19ZM15 19L15 20L17 20L17 19ZM21 21L21 24L24 24L24 21ZM22 22L22 23L23 23L23 22ZM12 24L12 26L10 26L10 25L9 25L9 26L10 26L10 27L11 27L11 28L12 28L12 26L13 26L13 27L14 27L14 26L15 26L15 24ZM13 25L13 26L14 26L14 25ZM28 25L28 27L27 27L27 29L28 29L28 27L29 27L29 25ZM16 28L16 29L17 29L17 28ZM0 0L0 7L7 7L7 0ZM1 1L1 6L6 6L6 1ZM2 2L2 5L5 5L5 2ZM22 0L22 7L29 7L29 0ZM23 1L23 6L28 6L28 1ZM24 2L24 5L27 5L27 2ZM0 22L0 29L7 29L7 22ZM1 23L1 28L6 28L6 23ZM2 24L2 27L5 27L5 24Z" fill="#000000"/></g></g></svg>
