<?xml version="1.0" encoding="UTF-8"?>
<svg xmlns="http://www.w3.org/2000/svg" version="1.1" width="100" height="100" viewBox="0 0 100 100"><rect x="0" y="0" width="100" height="100" fill="#ff3700"/><g transform="scale(3.448)"><g transform="translate(0,0)"><path fill-rule="evenodd" d="M8 0L8 4L10 4L10 3L11 3L11 4L12 4L12 2L11 2L11 0ZM12 0L12 1L13 1L13 0ZM14 0L14 1L15 1L15 0ZM17 0L17 2L15 2L15 3L14 3L14 2L13 2L13 3L14 3L14 4L13 4L13 5L11 5L11 6L10 6L10 7L9 7L9 5L8 5L8 7L9 7L9 8L10 8L10 7L11 7L11 6L12 6L12 8L11 8L11 9L9 9L9 10L8 10L8 9L7 9L7 8L4 8L4 9L5 9L5 10L2 10L2 8L0 8L0 9L1 9L1 10L0 10L0 12L1 12L1 10L2 10L2 13L1 13L1 14L0 14L0 18L1 18L1 17L3 17L3 18L2 18L2 19L3 19L3 20L0 20L0 21L5 21L5 20L4 20L4 19L7 19L7 20L6 20L6 21L7 21L7 20L8 20L8 19L11 19L11 20L10 20L10 21L11 21L11 20L12 20L12 21L13 21L13 22L15 22L15 23L14 23L14 24L13 24L13 23L12 23L12 24L11 24L11 23L10 23L10 22L9 22L9 21L8 21L8 22L9 22L9 23L8 23L8 25L9 25L9 27L8 27L8 29L10 29L10 28L12 28L12 29L14 29L14 27L16 27L16 29L18 29L18 28L19 28L19 27L20 27L20 29L22 29L22 25L23 25L23 26L24 26L24 25L25 25L25 26L27 26L27 29L28 29L28 28L29 28L29 25L28 25L28 24L29 24L29 17L28 17L28 16L29 16L29 13L28 13L28 12L29 12L29 8L25 8L25 9L24 9L24 8L23 8L23 9L22 9L22 10L28 10L28 11L27 11L27 14L26 14L26 13L22 13L22 12L25 12L25 11L22 11L22 12L21 12L21 10L20 10L20 12L19 12L19 13L18 13L18 10L16 10L16 8L15 8L15 5L16 5L16 7L17 7L17 9L18 9L18 8L19 8L19 9L20 9L20 7L21 7L21 6L20 6L20 5L19 5L19 2L20 2L20 4L21 4L21 0L20 0L20 1L19 1L19 0ZM18 1L18 2L19 2L19 1ZM9 2L9 3L10 3L10 2ZM15 3L15 4L16 4L16 5L17 5L17 7L18 7L18 3ZM13 6L13 8L12 8L12 9L11 9L11 10L9 10L9 12L8 12L8 13L6 13L6 12L7 12L7 11L8 11L8 10L7 10L7 9L6 9L6 10L5 10L5 11L4 11L4 12L5 12L5 13L4 13L4 14L3 14L3 13L2 13L2 14L1 14L1 16L3 16L3 17L5 17L5 18L10 18L10 17L11 17L11 18L12 18L12 17L13 17L13 18L15 18L15 17L17 17L17 14L16 14L16 16L15 16L15 17L13 17L13 16L14 16L14 15L15 15L15 14L13 14L13 13L12 13L12 12L13 12L13 11L12 11L12 12L11 12L11 13L10 13L10 11L11 11L11 10L12 10L12 9L13 9L13 10L15 10L15 9L13 9L13 8L14 8L14 6ZM19 6L19 7L20 7L20 6ZM6 10L6 11L5 11L5 12L6 12L6 11L7 11L7 10ZM14 11L14 13L15 13L15 12L16 12L16 13L17 13L17 11ZM8 13L8 15L9 15L9 14L10 14L10 16L11 16L11 17L12 17L12 16L13 16L13 15L12 15L12 16L11 16L11 14L10 14L10 13ZM19 13L19 14L18 14L18 15L19 15L19 16L20 16L20 17L19 17L19 19L22 19L22 20L26 20L26 21L25 21L25 22L27 22L27 23L26 23L26 24L25 24L25 25L27 25L27 26L28 26L28 25L27 25L27 23L28 23L28 20L27 20L27 19L28 19L28 18L27 18L27 15L28 15L28 14L27 14L27 15L26 15L26 14L25 14L25 15L24 15L24 17L25 17L25 18L24 18L24 19L23 19L23 18L22 18L22 17L23 17L23 14L22 14L22 13ZM2 14L2 15L3 15L3 16L5 16L5 17L7 17L7 16L6 16L6 15L7 15L7 14L5 14L5 15L3 15L3 14ZM20 15L20 16L21 16L21 17L22 17L22 16L21 16L21 15ZM25 16L25 17L26 17L26 16ZM16 18L16 19L18 19L18 18ZM25 18L25 19L27 19L27 18ZM12 19L12 20L13 20L13 19ZM14 19L14 21L15 21L15 19ZM16 20L16 21L17 21L17 23L18 23L18 25L17 25L17 24L16 24L16 23L15 23L15 25L13 25L13 24L12 24L12 25L11 25L11 24L10 24L10 23L9 23L9 25L10 25L10 26L12 26L12 25L13 25L13 26L15 26L15 25L17 25L17 26L18 26L18 25L19 25L19 26L21 26L21 25L19 25L19 24L20 24L20 23L18 23L18 22L19 22L19 21L20 21L20 20L18 20L18 21L17 21L17 20ZM21 21L21 24L24 24L24 21ZM22 22L22 23L23 23L23 22ZM12 27L12 28L13 28L13 27ZM25 27L25 28L24 28L24 29L26 29L26 27ZM0 0L0 7L7 7L7 0ZM1 1L1 6L6 6L6 1ZM2 2L2 5L5 5L5 2ZM22 0L22 7L29 7L29 0ZM23 1L23 6L28 6L28 1ZM24 2L24 5L27 5L27 2ZM0 22L0 29L7 29L7 22ZM1 23L1 28L6 28L6 23ZM2 24L2 27L5 27L5 24Z" fill="#000000"/></g></g></svg>
